<svg width="23" height="20" viewBox="0 0 23 20"  xmlns="http://www.w3.org/2000/svg">
<path d="M11.9999 1.5C17.2851 1.5 21.6249 4.89453 21.6249 9.0625C21.6249 13.2305 17.2851 16.625 11.9999 16.625C10.7538 16.625 9.55069 16.4531 8.39054 16.1094L7.74601 15.8945L7.18741 16.2812C6.19913 16.9688 4.69523 17.7852 2.8046 18C3.32023 17.3555 4.05069 16.2383 4.52335 14.9922L4.82413 14.1758L4.26554 13.5742C3.01944 12.2422 2.37491 10.6953 2.37491 9.0625C2.37491 4.89453 6.67179 1.5 11.9999 1.5ZM11.9999 0.125C5.89835 0.125 0.999913 4.16406 0.999913 9.0625C0.999913 11.125 1.81632 13.0156 3.23429 14.5195C2.63273 16.1953 1.30069 17.6562 1.25773 17.6562C0.956945 17.957 0.913976 18.3867 1.04288 18.7734C1.21476 19.1602 1.60148 19.375 1.98819 19.375C4.65226 19.375 6.71476 18.3008 8.00382 17.3984C9.24991 17.7852 10.5819 18 11.9999 18C18.0585 18 22.9999 14.0039 22.9999 9.0625C22.9999 4.16406 18.0585 0.125 11.9999 0.125Z" />
</svg>
