<svg width="22" height="22" viewBox="0 0 22 22"  xmlns="http://www.w3.org/2000/svg">
<path d="M10.6562 0.09375C4.76953 0.09375 0 4.86328 0 10.75C0 16.6367 4.76953 21.4062 10.6562 21.4062C16.543 21.4062 21.3125 16.6367 21.3125 10.75C21.3125 4.86328 16.543 0.09375 10.6562 0.09375ZM10.6562 20.0312C5.5 20.0312 1.375 15.9062 1.375 10.75C1.375 5.63672 5.5 1.46875 10.6562 1.46875C15.7695 1.46875 19.9375 5.63672 19.9375 10.75C19.9375 15.9062 15.7695 20.0312 10.6562 20.0312ZM14.5234 13.7578C13.5352 14.918 12.1172 15.5625 10.6562 15.5625C9.15234 15.5625 7.73438 14.918 6.74609 13.7578C6.53125 13.457 6.10156 13.457 5.80078 13.6719C5.5 13.9297 5.45703 14.3594 5.71484 14.6602C6.91797 16.1211 8.72266 16.9375 10.6562 16.9375C12.5469 16.9375 14.3516 16.1211 15.5547 14.6602C15.8125 14.3594 15.7695 13.9297 15.4688 13.6719C15.2109 13.457 14.7383 13.457 14.5234 13.7578ZM7.21875 10.0625C7.94922 10.0625 8.59375 9.46094 8.59375 8.6875C8.59375 7.95703 7.94922 7.3125 7.21875 7.3125C6.44531 7.3125 5.84375 7.95703 5.84375 8.6875C5.84375 9.46094 6.44531 10.0625 7.21875 10.0625ZM14.0938 10.0625C14.8242 10.0625 15.4688 9.46094 15.4688 8.6875C15.4688 7.95703 14.8242 7.3125 14.0938 7.3125C13.3203 7.3125 12.7188 7.95703 12.7188 8.6875C12.7188 9.46094 13.3203 10.0625 14.0938 10.0625Z" />
</svg>
