<svg id="a8958859-8e13-4d28-be3a-2b1bd58f0dfc"  xmlns="http://www.w3.org/2000/svg" viewBox="0 0 30 30"><path d="M21.88,15a4.13,4.13,0,1,0-4.13-4.12A4.13,4.13,0,0,0,21.88,15Zm0-6.88a2.77,2.77,0,0,1,2.74,2.76,2.75,2.75,0,1,1-2.74-2.76ZM9.5,15a4.81,4.81,0,1,0-4.81-4.81A4.83,4.83,0,0,0,9.5,15Zm0-8.25a3.44,3.44,0,1,1,0,6.87,3.44,3.44,0,1,1,0-6.87Zm3.44,9.11c-1.46,0-1.81.52-3.44.52s-2-.52-3.48-.52a4.81,4.81,0,0,0-3.95,2,5.15,5.15,0,0,0-.82,2.79v1.89a2,2,0,0,0,2.06,2.06H15.69a2.06,2.06,0,0,0,2.06-2.06V20.67a5.19,5.19,0,0,0-.86-2.79A4.83,4.83,0,0,0,12.94,15.86Zm3.44,6.7a.71.71,0,0,1-.69.69H3.31a.69.69,0,0,1-.69-.69V20.67a3.39,3.39,0,0,1,.61-2A3.34,3.34,0,0,1,6,17.23c1.2,0,1.63.52,3.48.52s2.23-.52,3.44-.52a3.34,3.34,0,0,1,2.79,1.42,3.38,3.38,0,0,1,.6,2v1.89ZM28,17.66A3.9,3.9,0,0,0,24.71,16c-1.16,0-1.46.43-2.83.43S20.2,16,19,16a3.65,3.65,0,0,0-1.64.38,4.15,4.15,0,0,1,.86,1.12,4.64,4.64,0,0,1,.78-.09c.94,0,1.29.43,2.88.43s1.93-.43,2.83-.43a2.58,2.58,0,0,1,2.67,2.58v1.59a.35.35,0,0,1-.35.35H19.12A5.92,5.92,0,0,1,19,23.25h8a1.69,1.69,0,0,0,1.72-1.72V19.94A3.83,3.83,0,0,0,28,17.66Z"/></svg>