<svg width="23" height="20" viewBox="0 0 23 20"  xmlns="http://www.w3.org/2000/svg">
<path d="M20.8517 1.45711C18.4884 -0.519454 15.0079 -0.218673 12.8165 2.05867L12.0001 2.91805L11.1407 2.05867C9.37901 0.253984 5.85558 -0.863204 3.10558 1.45711C0.398544 3.77742 0.269638 7.90242 2.67589 10.3946L11.0118 18.9884C11.2696 19.2462 11.6134 19.3751 11.9571 19.3751C12.3439 19.3751 12.6876 19.2462 12.9454 18.9884L21.2814 10.3946C23.6876 7.90242 23.5587 3.77742 20.8517 1.45711ZM20.2931 9.4493L12.0001 18.043L3.66417 9.4493C2.03136 7.73055 1.68761 4.50789 4.00792 2.53133C6.3712 0.511796 9.1212 1.97273 10.1525 3.00398L12.0001 4.89461L13.8048 3.00398C14.7931 1.97273 17.586 0.511796 19.9493 2.53133C22.2696 4.50789 21.9259 7.73055 20.2931 9.4493Z" />
</svg>
