<svg id="a2b7b2d4-3a7e-4ef8-815f-f2ff2ed50e60" xmlns="http://www.w3.org/2000/svg" viewBox="0 0 30 30"><path d="M23.94,6.75H6.06A2.06,2.06,0,0,0,4,8.81V21.19a2,2,0,0,0,2.06,2.06H23.94A2.06,2.06,0,0,0,26,21.19V8.81A2.1,2.1,0,0,0,23.94,6.75ZM6.06,8.12H23.94a.74.74,0,0,1,.68.69v1.81c-.94.77-2.32,1.89-6.48,5.2-.73.6-2.15,2-3.14,1.93s-2.45-1.33-3.18-1.93c-4.17-3.31-5.54-4.43-6.44-5.2V8.81A.71.71,0,0,1,6.06,8.12ZM23.94,21.88H6.06a.68.68,0,0,1-.68-.69V12.38c.94.82,2.49,2.06,5.58,4.51.9.73,2.45,2.28,4,2.23s3.09-1.5,4-2.23c3.09-2.45,4.64-3.69,5.62-4.51v8.81A.71.71,0,0,1,23.94,21.88Z"/></svg>