<svg width="26" height="27" viewBox="0 0 26 27"  xmlns="http://www.w3.org/2000/svg">
<path d="M12.7087 25.0625C11.6891 25.0625 10.8962 24.2695 10.8962 23.25H9.08367C9.08367 25.2891 10.6696 26.875 12.7087 26.875C14.6911 26.875 16.3337 25.2891 16.3337 23.25H14.5212C14.5212 24.2695 13.6716 25.0625 12.7087 25.0625ZM24.5466 18.9746C22.9606 17.502 21.7712 15.916 21.7712 10.5352C21.7712 6.06055 18.1462 2.37891 13.6149 1.92578V0.90625C13.6149 0.453125 13.1618 0 12.7087 0C12.1989 0 11.8024 0.453125 11.8024 0.90625V1.92578C7.21453 2.37891 3.58953 6.06055 3.58953 10.5352C3.58953 15.916 2.40008 17.502 0.814143 18.9746C0.0211746 19.7676 -0.205388 20.9004 0.191096 21.9199C0.587581 22.9395 1.60711 23.5625 2.73992 23.5625H22.6774C23.7536 23.5625 24.7731 22.9395 25.1696 21.9199C25.5661 20.9004 25.3395 19.7676 24.5466 18.9746ZM22.6774 21.75H2.73992C1.89032 21.75 1.49383 20.8438 2.06024 20.2773C4.04266 18.4082 5.40203 16.3125 5.40203 10.5352C5.40203 6.74023 8.68719 3.625 12.7087 3.625C16.6735 3.625 19.9587 6.74023 19.9587 10.5352C19.9587 16.3125 21.3181 18.4082 23.3005 20.2773C23.8669 20.8438 23.4704 21.75 22.6774 21.75Z" />
</svg>
