<svg width="13" height="15" viewBox="0 0 13 15"  xmlns="http://www.w3.org/2000/svg">
<path d="M8.09375 12.5625H8.53125C8.64062 12.5625 8.75 12.4805 8.75 12.3438V4.90625C8.75 4.79688 8.64062 4.6875 8.53125 4.6875H8.09375C7.95703 4.6875 7.875 4.79688 7.875 4.90625V12.3438C7.875 12.4805 7.95703 12.5625 8.09375 12.5625ZM3.71875 12.5625H4.15625C4.26562 12.5625 4.375 12.4805 4.375 12.3438V4.90625C4.375 4.79688 4.26562 4.6875 4.15625 4.6875H3.71875C3.58203 4.6875 3.5 4.79688 3.5 4.90625V12.3438C3.5 12.4805 3.58203 12.5625 3.71875 12.5625ZM12.0312 2.5H9.1875L8.25781 1.29688C8.03906 0.996094 7.57422 0.75 7.21875 0.75H5.03125C4.64844 0.75 4.18359 0.996094 3.96484 1.29688L3.0625 2.5H0.21875C0.0820312 2.5 0 2.60938 0 2.71875V3.15625C0 3.29297 0.0820312 3.375 0.21875 3.375H0.875V13.4375C0.875 14.1758 1.44922 14.75 2.1875 14.75H10.0625C10.7734 14.75 11.375 14.1758 11.375 13.4375V3.375H12.0312C12.1406 3.375 12.25 3.29297 12.25 3.15625V2.71875C12.25 2.60938 12.1406 2.5 12.0312 2.5ZM4.67578 1.81641C4.73047 1.70703 4.89453 1.65234 5.03125 1.625H7.21875C7.32812 1.65234 7.49219 1.70703 7.54688 1.81641L8.09375 2.5H4.15625L4.67578 1.81641ZM10.5 13.4375C10.5 13.6836 10.2812 13.875 10.0625 13.875H2.1875C1.94141 13.875 1.75 13.6836 1.75 13.4375V3.375H10.5V13.4375ZM5.90625 12.5625H6.34375C6.45312 12.5625 6.5625 12.4805 6.5625 12.3438V4.90625C6.5625 4.79688 6.45312 4.6875 6.34375 4.6875H5.90625C5.76953 4.6875 5.6875 4.79688 5.6875 4.90625V12.3438C5.6875 12.4805 5.76953 12.5625 5.90625 12.5625Z" />
</svg>
