<svg width="22" height="22" viewBox="0 0 22 22"  xmlns="http://www.w3.org/2000/svg">
<path d="M20.7111 12.6406L19.3361 11.8242C19.3361 11.5234 19.379 11.0508 19.379 10.75C19.379 10.4922 19.3361 10.0195 19.3361 9.71875L20.7111 8.90234C21.1407 8.6875 21.3126 8.17188 21.1837 7.74219C20.7111 6.10938 19.8517 4.64844 18.7345 3.44531C18.3907 3.10156 17.8751 3.01562 17.4454 3.27344L16.0704 4.08984C15.5978 3.70312 14.7814 3.23047 14.2228 3.01562V1.42578C14.2228 0.910156 13.922 0.523438 13.4493 0.394531C11.8165 0.0078125 10.1407 0.0078125 8.50793 0.394531C8.03527 0.523438 7.73449 0.910156 7.73449 1.42578V3.01562C7.1759 3.23047 6.35949 3.70312 5.88684 4.08984L4.51184 3.27344C4.08215 3.01562 3.56653 3.10156 3.22278 3.44531C2.10559 4.64844 1.24621 6.10938 0.773556 7.74219C0.64465 8.17188 0.816525 8.6875 1.24621 8.90234L2.62121 9.71875C2.62121 10.0195 2.57824 10.4922 2.57824 10.75C2.57824 11.0508 2.62121 11.5234 2.62121 11.8242L1.24621 12.6406C0.816525 12.8555 0.64465 13.3711 0.773556 13.8008C1.24621 15.4336 2.10559 16.8945 3.22278 18.0977C3.56653 18.4414 4.08215 18.5273 4.51184 18.2695L5.88684 17.4531C6.35949 17.8398 7.1759 18.3125 7.73449 18.5273V20.1172C7.73449 20.6328 8.03527 21.0195 8.50793 21.1484C10.1407 21.5352 11.8165 21.5352 13.4493 21.1484C13.922 21.0195 14.2228 20.6328 14.2228 20.1172V18.5273C14.7814 18.3125 15.5978 17.8398 16.0704 17.4531L17.4454 18.2695C17.8751 18.5273 18.3907 18.4414 18.7345 18.0977C19.8517 16.8945 20.7111 15.4336 21.1837 13.8008C21.3126 13.3711 21.1407 12.8555 20.7111 12.6406ZM17.9181 16.9375L15.8986 15.7773C14.7384 16.8086 14.3517 17.0234 12.8478 17.582V19.8594C12.3322 19.9883 11.5157 20.0742 11.0001 20.0742C10.4415 20.0742 9.62512 19.9883 9.10949 19.8594V17.582C7.64856 17.0664 7.21887 16.8086 6.05871 15.7773L4.03918 16.9375C3.22278 15.9922 2.57824 14.875 2.14856 13.6719L4.16809 12.5547C3.86731 11.0078 3.86731 10.5352 4.16809 8.98828L2.14856 7.87109C2.57824 6.66797 3.22278 5.55078 4.03918 4.60547L6.05871 5.76562C7.21887 4.73438 7.64856 4.47656 9.10949 3.96094V1.68359C9.62512 1.55469 10.4415 1.46875 11.0001 1.46875C11.5157 1.46875 12.3322 1.55469 12.8478 1.68359V3.96094C14.3087 4.47656 14.7384 4.73438 15.8986 5.76562L17.9181 4.60547C18.7345 5.55078 19.379 6.66797 19.8087 7.87109L17.7892 8.98828C18.09 10.5352 18.09 11.0078 17.7892 12.5547L19.8087 13.6719C19.379 14.875 18.7345 15.9922 17.9181 16.9375ZM11.0001 6.625C8.72278 6.625 6.87512 8.51562 6.87512 10.75C6.87512 13.0273 8.72278 14.875 11.0001 14.875C13.2345 14.875 15.1251 13.0273 15.1251 10.75C15.1251 8.51562 13.2345 6.625 11.0001 6.625ZM11.0001 13.5C9.45324 13.5 8.25012 12.2969 8.25012 10.75C8.25012 9.24609 9.45324 8 11.0001 8C12.504 8 13.7501 9.24609 13.7501 10.75C13.7501 12.2969 12.504 13.5 11.0001 13.5Z"/>
</svg>
