<svg width="22" height="20" viewBox="0 0 22 20"  xmlns="http://www.w3.org/2000/svg">
<path d="M11 16.2812C13.8359 16.2812 16.1562 14.0039 16.1562 11.125C16.1562 8.28906 13.8359 5.96875 11 5.96875C8.12109 5.96875 5.84375 8.28906 5.84375 11.125C5.84375 14.0039 8.12109 16.2812 11 16.2812ZM11 7.34375C13.0625 7.34375 14.7812 9.0625 14.7812 11.125C14.7812 13.2305 13.0625 14.9062 11 14.9062C8.89453 14.9062 7.21875 13.2305 7.21875 11.125C7.21875 9.0625 8.89453 7.34375 11 7.34375ZM9.625 11.125C9.625 10.3945 10.2266 9.75 11 9.75C11.3438 9.75 11.6875 9.44922 11.6875 9.0625C11.6875 8.71875 11.3438 8.375 11 8.375C9.45312 8.375 8.25 9.62109 8.25 11.125C8.25 11.5117 8.55078 11.8125 8.9375 11.8125C9.28125 11.8125 9.625 11.5117 9.625 11.125ZM13.9219 1.5C14.0508 1.5 14.1797 1.62891 14.2227 1.75781L15.168 4.25H19.9375C20.2812 4.25 20.625 4.59375 20.625 4.9375V17.3125C20.625 17.6992 20.2812 18 19.9375 18H2.0625C1.67578 18 1.375 17.6992 1.375 17.3125V4.9375C1.375 4.59375 1.67578 4.25 2.0625 4.25H6.78906L7.64844 1.97266C7.73438 1.71484 7.99219 1.5 8.29297 1.5H13.9219ZM13.9219 0.125H8.29297C7.43359 0.125 6.66016 0.683594 6.35938 1.5L5.84375 2.875H2.0625C0.902344 2.875 0 3.82031 0 4.9375V17.3125C0 18.4727 0.902344 19.375 2.0625 19.375H19.9375C21.0547 19.375 22 18.4727 22 17.3125V4.9375C22 3.82031 21.0547 2.875 19.9375 2.875H16.1562L15.5117 1.24219C15.2539 0.597656 14.6523 0.125 13.9219 0.125Z" />
</svg>
