<svg width="15" height="16" viewBox="0 0 15 16" fill="none" xmlns="http://www.w3.org/2000/svg">
<path d="M14.8828 14.9961L11.1035 11.2168C11.0449 11.1582 10.957 11.1289 10.8691 11.1289H10.5469C11.5723 10.0156 12.1875 8.58008 12.1875 6.96875C12.1875 3.62891 9.43359 0.875 6.09375 0.875C2.72461 0.875 0 3.62891 0 6.96875C0 10.3379 2.72461 13.0625 6.09375 13.0625C7.67578 13.0625 9.14062 12.4473 10.2246 11.4512V11.7441C10.2246 11.8613 10.2539 11.9492 10.3125 12.0078L14.0918 15.7871C14.2383 15.9336 14.4434 15.9336 14.5898 15.7871L14.8828 15.4941C15.0293 15.3477 15.0293 15.1426 14.8828 14.9961ZM6.09375 12.125C3.22266 12.125 0.9375 9.83984 0.9375 6.96875C0.9375 4.12695 3.22266 1.8125 6.09375 1.8125C8.93555 1.8125 11.25 4.12695 11.25 6.96875C11.25 9.83984 8.93555 12.125 6.09375 12.125Z" fill="#B6C3E1"/>
</svg>
