<svg id="e3fc1b31-256f-41fb-a88c-f218ac990f97" data-name="Capa 1" xmlns="http://www.w3.org/2000/svg" viewBox="0 0 272.79 208.69"><path d="M272.55,35.66a1.21,1.21,0,0,0-1.15-1.3c-44.93-2.67-90.1-1.62-135,.33-37.8,1.65-75.13.07-112.73-1.63a.91.91,0,0,0-.9,0q-10.75-.5-21.54-1c-1.63-.07-1.59,2.39,0,2.53q11.16,1,22.34,1.66c13.71,17,17,41.9,9.29,62.31-2.07,1.65-4.15,3.29-6.19,4.94-1,.81.33,2.56,1.39,1.8,1.93-1.37,3.9-2.67,5.84-4a1,1,0,0,0,.88-.55c39.71,7.71,74.17,29,98.44,61.65a1.35,1.35,0,0,0,.49.41c-.12,8.9-.45,17.78-1.15,26.66a17.39,17.39,0,0,0-6.15,2.64,10.6,10.6,0,0,0-1.7.81c-3.16-3.55-3.48-8.29-1.3-12.83.51-1.06-.91-2.42-1.75-1.35a11.77,11.77,0,0,0,1,15.64,13.75,13.75,0,0,0-3.36,4.6c-3.39-.83-6.7-2.12-9-4.79-3-3.48-3.47-8.35-3.29-12.76a1.12,1.12,0,0,0-2.19-.3,16.93,16.93,0,0,0,2.74,14.26c2.65,3.47,6.64,5.25,10.81,6.13a17.83,17.83,0,0,0-.6,4.56,24.62,24.62,0,0,0-6.73.28c-4.36.68-9,2.68-10.74,7-.49,1.22,1.21,1.9,2,1.18,2.65-2.35,4.82-4.29,8.41-5.13a24.19,24.19,0,0,1,7.29-.66,15.65,15.65,0,0,0,1.1,4,16,16,0,0,0,1.19,2.1c-6.78,2-11.82,9.92-9.3,17,.42,1.16,2.36,1.09,2.28-.31-.22-3.81.18-7.66,2.79-10.65a11.66,11.66,0,0,1,6.11-3.56,18.15,18.15,0,0,0,5.9,4.3,7.9,7.9,0,0,0,.24,4.74,7.21,7.21,0,0,0,3.22,3.67,4.79,4.79,0,0,0-1,4.49.81.81,0,0,0,1.59-.22,5.4,5.4,0,0,1,1.7-3.41,6.76,6.76,0,0,0,3.72,0c.89.89.47,2.24.67,3.5a1.05,1.05,0,0,0,1.54.63c1.85-1.22,1.35-3.4.09-5a8.09,8.09,0,0,0,3.1-3.2,9.57,9.57,0,0,0,1-5.42,16.83,16.83,0,0,0,5.1-4,14.13,14.13,0,0,1,9.93,7.25c2.56,4.8,2.24,9.76,2,15a1.24,1.24,0,0,0,2.43.33c2.81-9.76-2.74-23-12.91-24.6a15.21,15.21,0,0,0,2.13-7.54,17.86,17.86,0,0,1,6.31.51c4.75,1.4,6.12,4.8,7.53,9.1a1,1,0,0,0,2-.26c.06-9.38-8.25-11.64-15.84-11.17a20.6,20.6,0,0,0-1.3-5.83,23.3,23.3,0,0,0,18.69-20.86,1.26,1.26,0,0,0-2.46-.33c-1.75,9.87-8,16.9-17.17,19.07a18.68,18.68,0,0,0-3.87-5.15c4.42-2.24,7.42-8.17,6.5-12.78-.25-1.24-1.89-.79-2,.27a16.77,16.77,0,0,1-2.12,7.16,14,14,0,0,1-4.11,4,13.14,13.14,0,0,0-4.89-2.09,17.57,17.57,0,0,0-4.26-.29c.83-9.15,1.31-18.42,1.54-27.75,25.66-25.82,54.41-39.34,91.55-34.52a1.16,1.16,0,0,0,1-.35l.79.64a.82.82,0,0,0,1.21-.18.86.86,0,0,0,.71-.84c.92-18.43,1.58-33.16,9.64-50.33,7-15,15.64-29.21,30.08-38A1.46,1.46,0,0,0,272.55,35.66Zm-48.48,1c-17.7,12.93-27.58,36-26,57.83-6.8-6.26-13.61-12.52-20.51-18.67,1.3-16.33,5.42-30.54,20.33-39.29C206.6,36.55,215.34,36.61,224.07,36.66Zm-31.43-.14c-12.21,7.68-17.46,23.08-17.31,37.32q-10-8.84-20.07-17.48c.27-4.1-.06-8.41,2-12.09s5.28-5.7,8.74-7.55Q179.33,36.51,192.64,36.52Zm-56.26,1c7.82-.34,15.64-.55,23.45-.72a18.68,18.68,0,0,0-5.21,5.88c-1.89,3.51-2,7.69-1.67,11.68-6.67-5.66-13.36-11.26-20.1-16.72Zm-5.53.19C137,44.26,143.46,50.66,150,57a18.46,18.46,0,0,0-17,7.37c-.75-9-1.53-17.84-2.28-26.6ZM133,123.81A95.26,95.26,0,0,0,73.66,74.57q9.21-6,18.44-11.94c18.65,1.44,32.43,11.73,39.23,29.3C131.93,102.56,132.53,113.19,133,123.81ZM130.9,84.18A42.14,42.14,0,0,0,95.15,60.64c5.62-3.65,11.24-7.29,16.82-11a18,18,0,0,1,13.83,9.55c1.7,3.38,2.84,7,4.34,10.52Q130.49,77,130.9,84.18Zm-1.12-22.39c-1.35-3.54-3.08-6.93-5.65-9.27a21.63,21.63,0,0,0-9.27-4.76c4.77-3.16,9.54-6.35,14.27-9.59C129.21,46,129.46,53.91,129.78,61.79Zm-4.14-23.85c-5.23,2.49-10.42,5.2-15.59,8a9.66,9.66,0,0,0-1.81-7.61Q116.94,38.21,125.64,37.94Zm-19.24.43a8.83,8.83,0,0,1,.93,9.11c-5,2.75-9.85,5.66-14.72,8.64,1.3-6.06-.19-13.21-4.32-17.71C94.32,38.43,100.36,38.46,106.4,38.37Zm-21.68.05c2.16,2.66,4.14,5.1,5.09,8.7,1,4,.45,7.44-.6,11.09C83,62.07,77,66.11,70.94,70.24c1.12-11.81-4.09-23.91-12.22-32.33C67.38,38.17,76.05,38.37,84.72,38.42Zm-58-2q14.7.9,29.43,1.38c9.51,9.82,12.43,21.26,12.06,34.38C57.4,79.68,46.91,87.48,36.8,95.4,43.17,75.94,39.35,52.35,26.67,36.44ZM37,99.14q17-11.79,34.31-23a98.15,98.15,0,0,1,62,54.35c.35,9.42.54,18.84.49,28.26C109.75,127,76,106,37,99.14Zm96.29-31.22c4.9-6.74,11.11-8.66,19.55-7.5a1.26,1.26,0,0,0,.61-.08c5.8,5.54,11.72,11,17.69,16.41C158,75.31,144,80.09,134.94,89.88,134.43,82.54,133.87,75.2,133.27,67.92Zm1.85,24.59c11.68-9.92,24-14.12,39.42-12.42a1.27,1.27,0,0,0,.28,0c6.26,5.6,12.61,11.1,19,16.56-22.36,2.87-44,11.49-56.89,30.82C136.55,115.8,135.92,104.13,135.12,92.51Zm2,67.07c.21-9.68.15-19.44-.12-29.22l.07,0c14.24-19.93,35.88-28.23,59.48-30.93a2.17,2.17,0,0,0,.36-.12q14.44,12.28,29,24C192.35,119.1,156.88,131,137.12,159.58Zm93.24-34.84-.45-.43a1.24,1.24,0,0,0-.45-.43q-14.39-13.74-29.2-27.38c-.72-24.65,9.31-44.34,28-59.82,13.25.09,26.5.15,39.78.1C240.49,54.74,227.63,93.21,230.36,124.74Z" transform="translate(0 -32.05)"/></svg>